<svg width="135" height="31" viewBox="0 0 135 31" fill="none" xmlns="http://www.w3.org/2000/svg">
<path d="M0.752 24V2.88H10C12.56 2.88 14.448 3.38133 15.664 4.384C16.88 5.38667 17.488 6.80533 17.488 8.64C17.488 9.77067 17.1467 10.7733 16.464 11.648C15.7813 12.5227 14.7787 13.0773 13.456 13.312V13.344C14.928 13.5573 16.0587 14.112 16.848 15.008C17.6373 15.904 18.032 16.9707 18.032 18.208C18.032 20.0213 17.3707 21.44 16.048 22.464C14.7467 23.488 12.8373 24 10.32 24H0.752ZM5.04 20.672H9.936C11.1307 20.672 12.016 20.4267 12.592 19.936C13.168 19.4453 13.456 18.7627 13.456 17.888C13.456 16.992 13.168 16.3093 12.592 15.84C12.016 15.3707 11.1307 15.136 9.936 15.136H5.04V20.672ZM5.04 11.744H9.424C11.7493 11.744 12.912 10.8373 12.912 9.024C12.912 7.21067 11.7493 6.304 9.424 6.304H5.04V11.744ZM21.804 24V8H25.612L25.9 11.136C26.3267 10.0267 26.9453 9.17333 27.756 8.576C28.588 7.97867 29.6227 7.68 30.86 7.68C31.2227 7.68 31.5533 7.712 31.852 7.776C32.1507 7.84 32.396 7.92533 32.588 8.032L32.076 11.712C31.8627 11.6267 31.596 11.5627 31.276 11.52C30.9773 11.4773 30.5827 11.456 30.092 11.456C29.452 11.456 28.8333 11.616 28.236 11.936C27.6387 12.2347 27.148 12.704 26.764 13.344C26.38 13.9627 26.188 14.752 26.188 15.712V24H21.804ZM42.2875 7.68C43.9088 7.68 45.3275 8.01067 46.5435 8.672C47.7808 9.33333 48.7408 10.2827 49.4235 11.52C50.1275 12.7573 50.4795 14.2507 50.4795 16C50.4795 17.728 50.1275 19.2213 49.4235 20.48C48.7408 21.7173 47.7808 22.6667 46.5435 23.328C45.3275 23.9893 43.9088 24.32 42.2875 24.32C40.6875 24.32 39.2688 23.9893 38.0315 23.328C36.7942 22.6667 35.8235 21.7173 35.1195 20.48C34.4368 19.2213 34.0955 17.728 34.0955 16C34.0955 14.2507 34.4368 12.7573 35.1195 11.52C35.8235 10.2827 36.7942 9.33333 38.0315 8.672C39.2688 8.01067 40.6875 7.68 42.2875 7.68ZM42.2875 10.944C41.4768 10.944 40.7835 11.136 40.2075 11.52C39.6528 11.8827 39.2262 12.4373 38.9275 13.184C38.6288 13.9307 38.4795 14.8693 38.4795 16C38.4795 17.1307 38.6288 18.0693 38.9275 18.816C39.2262 19.5627 39.6528 20.128 40.2075 20.512C40.7835 20.8747 41.4768 21.056 42.2875 21.056C43.0768 21.056 43.7488 20.8747 44.3035 20.512C44.8795 20.128 45.3168 19.5627 45.6155 18.816C45.9142 18.0693 46.0635 17.1307 46.0635 16C46.0635 14.8693 45.9142 13.9307 45.6155 13.184C45.3168 12.4373 44.8795 11.8827 44.3035 11.52C43.7488 11.136 43.0768 10.944 42.2875 10.944ZM61.4438 7.68C63.0651 7.68 64.4838 8.01067 65.6998 8.672C66.9371 9.33333 67.8971 10.2827 68.5798 11.52C69.2838 12.7573 69.6358 14.2507 69.6358 16C69.6358 17.728 69.2838 19.2213 68.5798 20.48C67.8971 21.7173 66.9371 22.6667 65.6998 23.328C64.4838 23.9893 63.0651 24.32 61.4438 24.32C59.8438 24.32 58.4251 23.9893 57.1878 23.328C55.9504 22.6667 54.9798 21.7173 54.2758 20.48C53.5931 19.2213 53.2518 17.728 53.2518 16C53.2518 14.2507 53.5931 12.7573 54.2758 11.52C54.9798 10.2827 55.9504 9.33333 57.1878 8.672C58.4251 8.01067 59.8438 7.68 61.4438 7.68ZM61.4438 10.944C60.6331 10.944 59.9398 11.136 59.3638 11.52C58.8091 11.8827 58.3824 12.4373 58.0838 13.184C57.7851 13.9307 57.6358 14.8693 57.6358 16C57.6358 17.1307 57.7851 18.0693 58.0838 18.816C58.3824 19.5627 58.8091 20.128 59.3638 20.512C59.9398 20.8747 60.6331 21.056 61.4438 21.056C62.2331 21.056 62.9051 20.8747 63.4598 20.512C64.0358 20.128 64.4731 19.5627 64.7718 18.816C65.0704 18.0693 65.2198 17.1307 65.2198 16C65.2198 14.8693 65.0704 13.9307 64.7718 13.184C64.4731 12.4373 64.0358 11.8827 63.4598 11.52C62.9051 11.136 62.2331 10.944 61.4438 10.944ZM89.592 8L82.2 15.712L81.336 16.128L76.536 21.28L76.472 16.608L84.6 8H89.592ZM77.688 0.991999V24H73.304V0.991999H77.688ZM82.808 13.088L89.976 24H85.016L79.8 15.648L82.808 13.088ZM96.874 0.991999V19.072C96.874 19.8187 97.002 20.3413 97.258 20.64C97.514 20.9387 97.9407 21.088 98.538 21.088C98.9007 21.088 99.1993 21.0667 99.434 21.024C99.6687 20.96 99.9673 20.8747 100.33 20.768L99.946 23.648C99.5833 23.8613 99.1247 24.0213 98.57 24.128C98.0367 24.256 97.5033 24.32 96.97 24.32C95.4127 24.32 94.2713 23.9467 93.546 23.2C92.842 22.432 92.49 21.216 92.49 19.552V0.991999H96.874ZM117.157 8L110.693 24.992C110.181 26.4427 109.605 27.5947 108.965 28.448C108.346 29.3013 107.621 29.92 106.789 30.304C105.978 30.688 105.007 30.88 103.877 30.88C103.045 30.88 102.277 30.7733 101.573 30.56C100.89 30.368 100.293 30.112 99.7805 29.792L100.709 26.624C101.114 26.944 101.541 27.168 101.989 27.296C102.437 27.4453 102.949 27.52 103.525 27.52C104.122 27.52 104.634 27.392 105.061 27.136C105.509 26.88 105.882 26.368 106.181 25.6L106.725 24.224L104.965 20.064L100.069 8H104.933L107.973 17.6L108.805 20.8L109.797 17.408L112.709 8H117.157ZM119.585 24V8H123.521L123.777 12.8L123.233 12.288C123.489 11.2427 123.895 10.3787 124.449 9.696C125.004 9.01333 125.676 8.512 126.465 8.192C127.276 7.85067 128.161 7.68 129.121 7.68C130.231 7.68 131.212 7.89333 132.065 8.32C132.94 8.74667 133.623 9.39733 134.113 10.272C134.625 11.1253 134.881 12.2027 134.881 13.504V24H130.497V14.752C130.497 13.3867 130.231 12.448 129.697 11.936C129.164 11.4027 128.471 11.136 127.617 11.136C127.02 11.136 126.433 11.2853 125.857 11.584C125.303 11.8613 124.844 12.32 124.481 12.96C124.14 13.6 123.969 14.4533 123.969 15.52V24H119.585Z" fill="white"/>
</svg>
