<svg width="1909" height="120" viewBox="0 0 1909 120" fill="none" xmlns="http://www.w3.org/2000/svg">
<rect width="1909" height="120" fill="#2B384C"/>
<rect x="300" y="32" width="56" height="56" rx="28" fill="#A53DFF"/>
<path d="M330.728 59.432C331.624 59.592 332.384 60.064 333.008 60.848C333.632 61.632 333.944 62.52 333.944 63.512C333.944 64.36 333.72 65.128 333.272 65.816C332.84 66.488 332.208 67.024 331.376 67.424C330.544 67.808 329.576 68 328.472 68H321.8V51.32H328.16C329.296 51.32 330.272 51.512 331.088 51.896C331.904 52.28 332.52 52.8 332.936 53.456C333.352 54.096 333.56 54.816 333.56 55.616C333.56 56.576 333.304 57.376 332.792 58.016C332.28 58.656 331.592 59.128 330.728 59.432ZM324.536 58.328H327.92C328.816 58.328 329.512 58.128 330.008 57.728C330.52 57.312 330.776 56.72 330.776 55.952C330.776 55.2 330.52 54.616 330.008 54.2C329.512 53.768 328.816 53.552 327.92 53.552H324.536V58.328ZM328.232 65.768C329.16 65.768 329.888 65.544 330.416 65.096C330.944 64.648 331.208 64.024 331.208 63.224C331.208 62.408 330.928 61.76 330.368 61.28C329.808 60.8 329.064 60.56 328.136 60.56H324.536V65.768H328.232Z" fill="white"/>
<path d="M370.752 71V49.88H380C382.56 49.88 384.448 50.3813 385.664 51.384C386.88 52.3867 387.488 53.8053 387.488 55.64C387.488 56.7707 387.147 57.7733 386.464 58.648C385.781 59.5227 384.779 60.0773 383.456 60.312V60.344C384.928 60.5573 386.059 61.112 386.848 62.008C387.637 62.904 388.032 63.9707 388.032 65.208C388.032 67.0213 387.371 68.44 386.048 69.464C384.747 70.488 382.837 71 380.32 71H370.752ZM375.04 67.672H379.936C381.131 67.672 382.016 67.4267 382.592 66.936C383.168 66.4453 383.456 65.7627 383.456 64.888C383.456 63.992 383.168 63.3093 382.592 62.84C382.016 62.3707 381.131 62.136 379.936 62.136H375.04V67.672ZM375.04 58.744H379.424C381.749 58.744 382.912 57.8373 382.912 56.024C382.912 54.2107 381.749 53.304 379.424 53.304H375.04V58.744ZM391.804 71V55H395.612L395.9 58.136C396.327 57.0267 396.945 56.1733 397.756 55.576C398.588 54.9787 399.623 54.68 400.86 54.68C401.223 54.68 401.553 54.712 401.852 54.776C402.151 54.84 402.396 54.9253 402.588 55.032L402.076 58.712C401.863 58.6267 401.596 58.5627 401.276 58.52C400.977 58.4773 400.583 58.456 400.092 58.456C399.452 58.456 398.833 58.616 398.236 58.936C397.639 59.2347 397.148 59.704 396.764 60.344C396.38 60.9627 396.188 61.752 396.188 62.712V71H391.804ZM412.288 54.68C413.909 54.68 415.328 55.0107 416.544 55.672C417.781 56.3333 418.741 57.2827 419.424 58.52C420.128 59.7573 420.48 61.2507 420.48 63C420.48 64.728 420.128 66.2213 419.424 67.48C418.741 68.7173 417.781 69.6667 416.544 70.328C415.328 70.9893 413.909 71.32 412.288 71.32C410.688 71.32 409.269 70.9893 408.032 70.328C406.794 69.6667 405.824 68.7173 405.12 67.48C404.437 66.2213 404.096 64.728 404.096 63C404.096 61.2507 404.437 59.7573 405.12 58.52C405.824 57.2827 406.794 56.3333 408.032 55.672C409.269 55.0107 410.688 54.68 412.288 54.68ZM412.288 57.944C411.477 57.944 410.784 58.136 410.208 58.52C409.653 58.8827 409.226 59.4373 408.928 60.184C408.629 60.9307 408.48 61.8693 408.48 63C408.48 64.1307 408.629 65.0693 408.928 65.816C409.226 66.5627 409.653 67.128 410.208 67.512C410.784 67.8747 411.477 68.056 412.288 68.056C413.077 68.056 413.749 67.8747 414.304 67.512C414.88 67.128 415.317 66.5627 415.616 65.816C415.914 65.0693 416.064 64.1307 416.064 63C416.064 61.8693 415.914 60.9307 415.616 60.184C415.317 59.4373 414.88 58.8827 414.304 58.52C413.749 58.136 413.077 57.944 412.288 57.944ZM431.444 54.68C433.065 54.68 434.484 55.0107 435.7 55.672C436.937 56.3333 437.897 57.2827 438.58 58.52C439.284 59.7573 439.636 61.2507 439.636 63C439.636 64.728 439.284 66.2213 438.58 67.48C437.897 68.7173 436.937 69.6667 435.7 70.328C434.484 70.9893 433.065 71.32 431.444 71.32C429.844 71.32 428.425 70.9893 427.188 70.328C425.95 69.6667 424.98 68.7173 424.276 67.48C423.593 66.2213 423.252 64.728 423.252 63C423.252 61.2507 423.593 59.7573 424.276 58.52C424.98 57.2827 425.95 56.3333 427.188 55.672C428.425 55.0107 429.844 54.68 431.444 54.68ZM431.444 57.944C430.633 57.944 429.94 58.136 429.364 58.52C428.809 58.8827 428.382 59.4373 428.084 60.184C427.785 60.9307 427.636 61.8693 427.636 63C427.636 64.1307 427.785 65.0693 428.084 65.816C428.382 66.5627 428.809 67.128 429.364 67.512C429.94 67.8747 430.633 68.056 431.444 68.056C432.233 68.056 432.905 67.8747 433.46 67.512C434.036 67.128 434.473 66.5627 434.772 65.816C435.07 65.0693 435.22 64.1307 435.22 63C435.22 61.8693 435.07 60.9307 434.772 60.184C434.473 59.4373 434.036 58.8827 433.46 58.52C432.905 58.136 432.233 57.944 431.444 57.944ZM459.592 55L452.2 62.712L451.336 63.128L446.536 68.28L446.472 63.608L454.6 55H459.592ZM447.688 47.992V71H443.304V47.992H447.688ZM452.808 60.088L459.976 71H455.016L449.8 62.648L452.808 60.088ZM466.874 47.992V66.072C466.874 66.8187 467.002 67.3413 467.258 67.64C467.514 67.9387 467.941 68.088 468.538 68.088C468.901 68.088 469.199 68.0667 469.434 68.024C469.669 67.96 469.967 67.8747 470.33 67.768L469.946 70.648C469.583 70.8613 469.125 71.0213 468.57 71.128C468.037 71.256 467.503 71.32 466.97 71.32C465.413 71.32 464.271 70.9467 463.546 70.2C462.842 69.432 462.49 68.216 462.49 66.552V47.992H466.874ZM487.157 55L480.693 71.992C480.181 73.4427 479.605 74.5947 478.965 75.448C478.346 76.3013 477.621 76.92 476.789 77.304C475.978 77.688 475.007 77.88 473.877 77.88C473.045 77.88 472.277 77.7733 471.573 77.56C470.89 77.368 470.293 77.112 469.78 76.792L470.709 73.624C471.114 73.944 471.541 74.168 471.989 74.296C472.437 74.4453 472.949 74.52 473.525 74.52C474.122 74.52 474.634 74.392 475.061 74.136C475.509 73.88 475.882 73.368 476.181 72.6L476.725 71.224L474.965 67.064L470.069 55H474.933L477.973 64.6L478.805 67.8L479.797 64.408L482.709 55H487.157ZM489.585 71V55H493.521L493.777 59.8L493.233 59.288C493.489 58.2427 493.895 57.3787 494.449 56.696C495.004 56.0133 495.676 55.512 496.465 55.192C497.276 54.8507 498.161 54.68 499.121 54.68C500.231 54.68 501.212 54.8933 502.065 55.32C502.94 55.7467 503.623 56.3973 504.113 57.272C504.625 58.1253 504.881 59.2027 504.881 60.504V71H500.497V61.752C500.497 60.3867 500.231 59.448 499.697 58.936C499.164 58.4027 498.471 58.136 497.617 58.136C497.02 58.136 496.433 58.2853 495.857 58.584C495.303 58.8613 494.844 59.32 494.481 59.96C494.14 60.6 493.969 61.4533 493.969 62.52V71H489.585Z" fill="white"/>
<path d="M712.016 54.44V65H710.736V54.44H712.016ZM705.008 54.44V65H703.728V54.44H705.008ZM711.328 59.048V60.248H704.4V59.048H711.328ZM718.425 56.84C719.182 56.84 719.849 57.0053 720.425 57.336C721.012 57.6667 721.47 58.1467 721.801 58.776C722.132 59.3947 722.297 60.136 722.297 61C722.297 61.864 722.132 62.6107 721.801 63.24C721.47 63.8587 721.012 64.3333 720.425 64.664C719.849 64.9947 719.182 65.16 718.425 65.16C717.678 65.16 717.012 64.9947 716.425 64.664C715.838 64.3333 715.38 63.8587 715.049 63.24C714.718 62.6107 714.553 61.864 714.553 61C714.553 60.136 714.718 59.3947 715.049 58.776C715.38 58.1467 715.838 57.6667 716.425 57.336C717.012 57.0053 717.678 56.84 718.425 56.84ZM718.425 57.944C717.881 57.944 717.417 58.0667 717.033 58.312C716.649 58.5573 716.35 58.9093 716.137 59.368C715.934 59.816 715.833 60.36 715.833 61C715.833 61.6293 715.934 62.1733 716.137 62.632C716.35 63.0907 716.649 63.4427 717.033 63.688C717.417 63.9333 717.881 64.056 718.425 64.056C718.969 64.056 719.433 63.9333 719.817 63.688C720.201 63.4427 720.494 63.0907 720.697 62.632C720.91 62.1733 721.017 61.6293 721.017 61C721.017 60.36 720.91 59.816 720.697 59.368C720.494 58.9093 720.201 58.5573 719.817 58.312C719.433 58.0667 718.969 57.944 718.425 57.944ZM724.707 65V57H725.827L725.907 58.248C726.195 57.7573 726.568 57.4 727.027 57.176C727.496 56.952 727.976 56.84 728.467 56.84C729.032 56.84 729.565 56.968 730.067 57.224C730.568 57.48 730.952 57.8747 731.219 58.408C731.389 58.0453 731.629 57.752 731.939 57.528C732.248 57.2933 732.584 57.1227 732.947 57.016C733.32 56.8987 733.672 56.84 734.003 56.84C734.515 56.84 735 56.9467 735.459 57.16C735.928 57.3733 736.312 57.704 736.611 58.152C736.909 58.6 737.059 59.176 737.059 59.88V65H735.779V60.008C735.779 59.2827 735.597 58.76 735.235 58.44C734.872 58.12 734.424 57.96 733.891 57.96C733.475 57.96 733.085 58.0613 732.723 58.264C732.36 58.4667 732.067 58.7653 731.843 59.16C731.629 59.5547 731.523 60.04 731.523 60.616V65H730.243V60.008C730.243 59.2827 730.061 58.76 729.699 58.44C729.336 58.12 728.888 57.96 728.355 57.96C728.003 57.96 727.64 58.056 727.267 58.248C726.904 58.4293 726.6 58.7227 726.355 59.128C726.109 59.5333 725.987 60.0667 725.987 60.728V65H724.707ZM743.301 65.16C742.543 65.16 741.866 64.9947 741.269 64.664C740.682 64.3333 740.223 63.8587 739.893 63.24C739.562 62.6107 739.397 61.864 739.397 61C739.397 60.136 739.562 59.3947 739.893 58.776C740.223 58.1467 740.677 57.6667 741.253 57.336C741.829 57.0053 742.485 56.84 743.221 56.84C743.967 56.84 744.602 57 745.125 57.32C745.658 57.64 746.063 58.0773 746.341 58.632C746.618 59.176 746.757 59.7893 746.757 60.472C746.757 60.6533 746.751 60.8187 746.741 60.968C746.73 61.1173 746.714 61.2507 746.693 61.368H740.229V60.232H746.133L745.477 60.36C745.477 59.592 745.263 59 744.837 58.584C744.421 58.168 743.871 57.96 743.189 57.96C742.666 57.96 742.213 58.0827 741.829 58.328C741.455 58.5627 741.162 58.9093 740.949 59.368C740.746 59.816 740.645 60.36 740.645 61C740.645 61.6293 740.751 62.1733 740.965 62.632C741.178 63.0907 741.477 63.4427 741.861 63.688C742.255 63.9227 742.725 64.04 743.269 64.04C743.855 64.04 744.33 63.928 744.693 63.704C745.066 63.48 745.365 63.176 745.589 62.792L746.597 63.384C746.394 63.7467 746.133 64.0613 745.813 64.328C745.503 64.5947 745.135 64.8027 744.709 64.952C744.293 65.0907 743.823 65.16 743.301 65.16Z" fill="#F0F1F3"/>
<path d="M782.144 65H780.784L779.664 62.072H774.88L773.76 65H772.416L776.528 54.44H778.048L782.144 65ZM775.344 60.872H779.2L777.264 55.672L775.344 60.872ZM787.971 65.16C787.523 65.16 787.107 65.08 786.723 64.92C786.339 64.76 786.008 64.536 785.731 64.248C785.453 63.96 785.245 63.6347 785.107 63.272L785.283 63.048L785.171 65H784.051V53.32H785.331V58.808L785.171 58.568C785.384 58.0667 785.741 57.656 786.243 57.336C786.755 57.0053 787.336 56.84 787.987 56.84C788.648 56.84 789.256 57.0053 789.811 57.336C790.365 57.6667 790.808 58.1413 791.139 58.76C791.469 59.3787 791.635 60.1253 791.635 61C791.635 61.864 791.464 62.6107 791.123 63.24C790.792 63.8587 790.349 64.3333 789.795 64.664C789.24 64.9947 788.632 65.16 787.971 65.16ZM787.843 64.04C788.632 64.04 789.245 63.7627 789.683 63.208C790.131 62.6533 790.355 61.9173 790.355 61C790.355 60.0827 790.136 59.3467 789.699 58.792C789.261 58.2373 788.648 57.96 787.859 57.96C787.357 57.96 786.915 58.088 786.531 58.344C786.157 58.6 785.864 58.9573 785.651 59.416C785.437 59.8747 785.331 60.4133 785.331 61.032C785.331 61.64 785.432 62.1733 785.635 62.632C785.848 63.08 786.141 63.4267 786.515 63.672C786.899 63.9173 787.341 64.04 787.843 64.04ZM797.394 56.84C798.151 56.84 798.818 57.0053 799.394 57.336C799.98 57.6667 800.439 58.1467 800.77 58.776C801.1 59.3947 801.266 60.136 801.266 61C801.266 61.864 801.1 62.6107 800.77 63.24C800.439 63.8587 799.98 64.3333 799.394 64.664C798.818 64.9947 798.151 65.16 797.394 65.16C796.647 65.16 795.98 64.9947 795.394 64.664C794.807 64.3333 794.348 63.8587 794.018 63.24C793.687 62.6107 793.522 61.864 793.522 61C793.522 60.136 793.687 59.3947 794.018 58.776C794.348 58.1467 794.807 57.6667 795.394 57.336C795.98 57.0053 796.647 56.84 797.394 56.84ZM797.394 57.944C796.85 57.944 796.386 58.0667 796.002 58.312C795.618 58.5573 795.319 58.9093 795.106 59.368C794.903 59.816 794.802 60.36 794.802 61C794.802 61.6293 794.903 62.1733 795.106 62.632C795.319 63.0907 795.618 63.4427 796.002 63.688C796.386 63.9333 796.85 64.056 797.394 64.056C797.938 64.056 798.402 63.9333 798.786 63.688C799.17 63.4427 799.463 63.0907 799.666 62.632C799.879 62.1733 799.986 61.6293 799.986 61C799.986 60.36 799.879 59.816 799.666 59.368C799.463 58.9093 799.17 58.5573 798.786 58.312C798.402 58.0667 797.938 57.944 797.394 57.944ZM806.572 65.16C806.06 65.16 805.574 65.064 805.116 64.872C804.668 64.68 804.3 64.3707 804.012 63.944C803.734 63.5067 803.596 62.9413 803.596 62.248V57H804.876V61.912C804.876 62.7227 805.052 63.2827 805.404 63.592C805.756 63.8907 806.252 64.04 806.891 64.04C807.19 64.04 807.484 63.992 807.772 63.896C808.06 63.7893 808.316 63.6293 808.54 63.416C808.774 63.192 808.956 62.9093 809.084 62.568C809.222 62.2267 809.292 61.8213 809.292 61.352V57H810.572V65H809.452L809.372 63.784C809.094 64.264 808.716 64.616 808.236 64.84C807.766 65.0533 807.212 65.16 806.572 65.16ZM815.439 54.728V62.792C815.439 63.1867 815.551 63.48 815.775 63.672C815.999 63.864 816.287 63.96 816.639 63.96C816.948 63.96 817.215 63.9067 817.439 63.8C817.663 63.6933 817.865 63.5493 818.047 63.368L818.495 64.44C818.249 64.664 817.956 64.84 817.615 64.968C817.284 65.096 816.9 65.16 816.463 65.16C816.057 65.16 815.679 65.0907 815.327 64.952C814.975 64.8027 814.692 64.5733 814.479 64.264C814.276 63.944 814.169 63.528 814.159 63.016V55.08L815.439 54.728ZM818.351 57V58.104H812.559V57H818.351Z" fill="#F0F1F3"/>
<path d="M848.12 54.28C849.048 54.28 849.848 54.472 850.52 54.856C851.192 55.2293 851.752 55.784 852.2 56.52L851.128 57.352C850.733 56.6693 850.285 56.1893 849.784 55.912C849.293 55.624 848.696 55.48 847.992 55.48C847.427 55.48 846.957 55.56 846.584 55.72C846.221 55.88 845.955 56.0933 845.784 56.36C845.613 56.616 845.528 56.9093 845.528 57.24C845.528 57.6133 845.645 57.944 845.88 58.232C846.115 58.5093 846.584 58.728 847.288 58.888L849.576 59.4C850.589 59.624 851.293 59.9653 851.688 60.424C852.093 60.872 852.296 61.432 852.296 62.104C852.296 62.7013 852.125 63.2347 851.784 63.704C851.453 64.1627 850.984 64.52 850.376 64.776C849.768 65.032 849.053 65.16 848.232 65.16C847.464 65.16 846.787 65.0587 846.2 64.856C845.624 64.6427 845.128 64.36 844.712 64.008C844.296 63.656 843.955 63.2613 843.688 62.824L844.808 61.912C845.011 62.3173 845.272 62.6747 845.592 62.984C845.912 63.2933 846.296 63.5333 846.744 63.704C847.203 63.8747 847.725 63.96 848.312 63.96C848.856 63.96 849.325 63.896 849.72 63.768C850.125 63.6293 850.435 63.432 850.648 63.176C850.861 62.9093 850.968 62.5893 850.968 62.216C850.968 61.8747 850.856 61.5707 850.632 61.304C850.408 61.0267 849.987 60.8187 849.368 60.68L846.888 60.12C846.237 59.9707 845.709 59.768 845.304 59.512C844.909 59.2453 844.621 58.936 844.44 58.584C844.269 58.2213 844.184 57.832 844.184 57.416C844.184 56.8507 844.339 56.3333 844.648 55.864C844.968 55.384 845.421 55 846.008 54.712C846.605 54.424 847.309 54.28 848.12 54.28ZM858.082 65.16C857.325 65.16 856.647 64.9947 856.05 64.664C855.463 64.3333 855.005 63.8587 854.674 63.24C854.343 62.6107 854.178 61.864 854.178 61C854.178 60.136 854.343 59.3947 854.674 58.776C855.005 58.1467 855.458 57.6667 856.034 57.336C856.61 57.0053 857.266 56.84 858.002 56.84C858.749 56.84 859.383 57 859.906 57.32C860.439 57.64 860.845 58.0773 861.122 58.632C861.399 59.176 861.538 59.7893 861.538 60.472C861.538 60.6533 861.533 60.8187 861.522 60.968C861.511 61.1173 861.495 61.2507 861.474 61.368H855.01V60.232H860.914L860.258 60.36C860.258 59.592 860.045 59 859.618 58.584C859.202 58.168 858.653 57.96 857.97 57.96C857.447 57.96 856.994 58.0827 856.61 58.328C856.237 58.5627 855.943 58.9093 855.73 59.368C855.527 59.816 855.426 60.36 855.426 61C855.426 61.6293 855.533 62.1733 855.746 62.632C855.959 63.0907 856.258 63.4427 856.642 63.688C857.037 63.9227 857.506 64.04 858.05 64.04C858.637 64.04 859.111 63.928 859.474 63.704C859.847 63.48 860.146 63.176 860.37 62.792L861.378 63.384C861.175 63.7467 860.914 64.0613 860.594 64.328C860.285 64.5947 859.917 64.8027 859.49 64.952C859.074 65.0907 858.605 65.16 858.082 65.16ZM863.972 65V57H865.012L865.188 58.312C865.412 57.8213 865.738 57.4533 866.164 57.208C866.602 56.9627 867.13 56.84 867.748 56.84C867.887 56.84 868.036 56.8507 868.196 56.872C868.367 56.8933 868.511 56.936 868.628 57L868.404 58.168C868.287 58.1253 868.159 58.0933 868.02 58.072C867.882 58.0507 867.684 58.04 867.428 58.04C867.098 58.04 866.762 58.136 866.42 58.328C866.09 58.52 865.812 58.8133 865.588 59.208C865.364 59.592 865.252 60.0827 865.252 60.68V65H863.972ZM875.8 57H877.144L873.816 65H872.536L869.208 57H870.664L873.192 63.704L875.8 57ZM879.456 55.464C879.168 55.464 878.933 55.3787 878.752 55.208C878.581 55.0267 878.496 54.792 878.496 54.504C878.496 54.216 878.581 53.9867 878.752 53.816C878.933 53.6347 879.168 53.544 879.456 53.544C879.744 53.544 879.973 53.6347 880.144 53.816C880.325 53.9867 880.416 54.216 880.416 54.504C880.416 54.792 880.325 55.0267 880.144 55.208C879.973 55.3787 879.744 55.464 879.456 55.464ZM880.096 57V65H878.816V57H880.096ZM886.378 56.84C886.933 56.84 887.418 56.9253 887.834 57.096C888.261 57.2667 888.629 57.512 888.938 57.832C889.247 58.152 889.498 58.5307 889.69 58.968L888.474 59.544C888.303 59.032 888.042 58.6427 887.69 58.376C887.349 58.0987 886.901 57.96 886.346 57.96C885.813 57.96 885.354 58.0827 884.97 58.328C884.586 58.5627 884.293 58.9093 884.09 59.368C883.887 59.816 883.786 60.36 883.786 61C883.786 61.6293 883.887 62.1733 884.09 62.632C884.293 63.0907 884.586 63.4427 884.97 63.688C885.354 63.9227 885.813 64.04 886.346 64.04C886.762 64.04 887.119 63.976 887.418 63.848C887.727 63.72 887.978 63.5333 888.17 63.288C888.373 63.0427 888.511 62.744 888.586 62.392L889.77 62.808C889.589 63.2987 889.338 63.72 889.018 64.072C888.709 64.424 888.33 64.696 887.882 64.888C887.445 65.0693 886.943 65.16 886.378 65.16C885.631 65.16 884.965 64.9947 884.378 64.664C883.791 64.3333 883.333 63.8587 883.002 63.24C882.671 62.6107 882.506 61.864 882.506 61C882.506 60.136 882.671 59.3947 883.002 58.776C883.333 58.1467 883.791 57.6667 884.378 57.336C884.965 57.0053 885.631 56.84 886.378 56.84ZM895.363 65.16C894.606 65.16 893.929 64.9947 893.331 64.664C892.745 64.3333 892.286 63.8587 891.955 63.24C891.625 62.6107 891.459 61.864 891.459 61C891.459 60.136 891.625 59.3947 891.955 58.776C892.286 58.1467 892.739 57.6667 893.315 57.336C893.891 57.0053 894.547 56.84 895.283 56.84C896.03 56.84 896.665 57 897.187 57.32C897.721 57.64 898.126 58.0773 898.403 58.632C898.681 59.176 898.819 59.7893 898.819 60.472C898.819 60.6533 898.814 60.8187 898.803 60.968C898.793 61.1173 898.777 61.2507 898.755 61.368H892.291V60.232H898.195L897.539 60.36C897.539 59.592 897.326 59 896.899 58.584C896.483 58.168 895.934 57.96 895.251 57.96C894.729 57.96 894.275 58.0827 893.891 58.328C893.518 58.5627 893.225 58.9093 893.011 59.368C892.809 59.816 892.707 60.36 892.707 61C892.707 61.6293 892.814 62.1733 893.027 62.632C893.241 63.0907 893.539 63.4427 893.923 63.688C894.318 63.9227 894.787 64.04 895.331 64.04C895.918 64.04 896.393 63.928 896.755 63.704C897.129 63.48 897.427 63.176 897.651 62.792L898.659 63.384C898.457 63.7467 898.195 64.0613 897.875 64.328C897.566 64.5947 897.198 64.8027 896.771 64.952C896.355 65.0907 895.886 65.16 895.363 65.16ZM904.134 65.16C903.355 65.16 902.635 64.9947 901.974 64.664C901.323 64.3333 900.822 63.864 900.47 63.256L901.558 62.472C901.792 62.9627 902.134 63.3467 902.582 63.624C903.04 63.9013 903.59 64.04 904.23 64.04C904.795 64.04 905.238 63.9333 905.558 63.72C905.878 63.496 906.038 63.208 906.038 62.856C906.038 62.632 905.963 62.4293 905.814 62.248C905.675 62.056 905.403 61.9173 904.998 61.832L903.078 61.432C902.299 61.272 901.739 61.0053 901.398 60.632C901.067 60.2587 900.902 59.7947 900.902 59.24C900.902 58.8027 901.024 58.4027 901.27 58.04C901.526 57.6773 901.883 57.3893 902.342 57.176C902.811 56.952 903.36 56.84 903.99 56.84C904.779 56.84 905.446 56.9947 905.99 57.304C906.534 57.6133 906.939 58.0507 907.206 58.616L906.134 59.32C905.952 58.8507 905.659 58.5093 905.254 58.296C904.848 58.072 904.427 57.96 903.99 57.96C903.606 57.96 903.275 58.0133 902.998 58.12C902.731 58.2267 902.523 58.376 902.374 58.568C902.235 58.7493 902.166 58.9573 902.166 59.192C902.166 59.4267 902.246 59.6453 902.406 59.848C902.566 60.04 902.864 60.1787 903.302 60.264L905.302 60.68C906.048 60.8293 906.571 61.0747 906.87 61.416C907.168 61.7573 907.318 62.1733 907.318 62.664C907.318 63.1653 907.184 63.608 906.918 63.992C906.651 64.3653 906.278 64.6533 905.798 64.856C905.318 65.0587 904.763 65.16 904.134 65.16Z" fill="#F0F1F3"/>
<path d="M938.456 54.44C939.171 54.44 939.789 54.5733 940.312 54.84C940.845 55.096 941.261 55.464 941.56 55.944C941.859 56.424 942.008 56.9947 942.008 57.656C942.008 58.3173 941.859 58.888 941.56 59.368C941.261 59.848 940.845 60.2213 940.312 60.488C939.789 60.744 939.171 60.872 938.456 60.872H936.008V65H934.728V54.44H938.456ZM938.264 59.672C939.096 59.672 939.704 59.5013 940.088 59.16C940.472 58.808 940.664 58.3067 940.664 57.656C940.664 56.9947 940.472 56.4933 940.088 56.152C939.704 55.8107 939.096 55.64 938.264 55.64H936.008V59.672H938.264ZM944.254 65V57H945.294L945.47 58.312C945.694 57.8213 946.019 57.4533 946.446 57.208C946.883 56.9627 947.411 56.84 948.03 56.84C948.168 56.84 948.318 56.8507 948.478 56.872C948.648 56.8933 948.792 56.936 948.91 57L948.686 58.168C948.568 58.1253 948.44 58.0933 948.302 58.072C948.163 58.0507 947.966 58.04 947.71 58.04C947.379 58.04 947.043 58.136 946.702 58.328C946.371 58.52 946.094 58.8133 945.87 59.208C945.646 59.592 945.534 60.0827 945.534 60.68V65H944.254ZM953.847 56.84C954.604 56.84 955.271 57.0053 955.847 57.336C956.434 57.6667 956.892 58.1467 957.223 58.776C957.554 59.3947 957.719 60.136 957.719 61C957.719 61.864 957.554 62.6107 957.223 63.24C956.892 63.8587 956.434 64.3333 955.847 64.664C955.271 64.9947 954.604 65.16 953.847 65.16C953.1 65.16 952.434 64.9947 951.847 64.664C951.26 64.3333 950.802 63.8587 950.471 63.24C950.14 62.6107 949.975 61.864 949.975 61C949.975 60.136 950.14 59.3947 950.471 58.776C950.802 58.1467 951.26 57.6667 951.847 57.336C952.434 57.0053 953.1 56.84 953.847 56.84ZM953.847 57.944C953.303 57.944 952.839 58.0667 952.455 58.312C952.071 58.5573 951.772 58.9093 951.559 59.368C951.356 59.816 951.255 60.36 951.255 61C951.255 61.6293 951.356 62.1733 951.559 62.632C951.772 63.0907 952.071 63.4427 952.455 63.688C952.839 63.9333 953.303 64.056 953.847 64.056C954.391 64.056 954.855 63.9333 955.239 63.688C955.623 63.4427 955.916 63.0907 956.119 62.632C956.332 62.1733 956.439 61.6293 956.439 61C956.439 60.36 956.332 59.816 956.119 59.368C955.916 58.9093 955.623 58.5573 955.239 58.312C954.855 58.0667 954.391 57.944 953.847 57.944ZM963.441 56.84C963.995 56.84 964.481 56.9253 964.897 57.096C965.323 57.2667 965.691 57.512 966.001 57.832C966.31 58.152 966.561 58.5307 966.753 58.968L965.537 59.544C965.366 59.032 965.105 58.6427 964.753 58.376C964.411 58.0987 963.963 57.96 963.409 57.96C962.875 57.96 962.417 58.0827 962.033 58.328C961.649 58.5627 961.355 58.9093 961.153 59.368C960.95 59.816 960.849 60.36 960.849 61C960.849 61.6293 960.95 62.1733 961.153 62.632C961.355 63.0907 961.649 63.4427 962.033 63.688C962.417 63.9227 962.875 64.04 963.409 64.04C963.825 64.04 964.182 63.976 964.481 63.848C964.79 63.72 965.041 63.5333 965.233 63.288C965.435 63.0427 965.574 62.744 965.649 62.392L966.833 62.808C966.651 63.2987 966.401 63.72 966.081 64.072C965.771 64.424 965.393 64.696 964.945 64.888C964.507 65.0693 964.006 65.16 963.441 65.16C962.694 65.16 962.027 64.9947 961.441 64.664C960.854 64.3333 960.395 63.8587 960.065 63.24C959.734 62.6107 959.569 61.864 959.569 61C959.569 60.136 959.734 59.3947 960.065 58.776C960.395 58.1467 960.854 57.6667 961.441 57.336C962.027 57.0053 962.694 56.84 963.441 56.84ZM972.426 65.16C971.668 65.16 970.991 64.9947 970.394 64.664C969.807 64.3333 969.348 63.8587 969.018 63.24C968.687 62.6107 968.522 61.864 968.522 61C968.522 60.136 968.687 59.3947 969.018 58.776C969.348 58.1467 969.802 57.6667 970.378 57.336C970.954 57.0053 971.61 56.84 972.346 56.84C973.092 56.84 973.727 57 974.25 57.32C974.783 57.64 975.188 58.0773 975.466 58.632C975.743 59.176 975.882 59.7893 975.882 60.472C975.882 60.6533 975.876 60.8187 975.866 60.968C975.855 61.1173 975.839 61.2507 975.818 61.368H969.354V60.232H975.258L974.602 60.36C974.602 59.592 974.388 59 973.962 58.584C973.546 58.168 972.996 57.96 972.314 57.96C971.791 57.96 971.338 58.0827 970.954 58.328C970.58 58.5627 970.287 58.9093 970.074 59.368C969.871 59.816 969.77 60.36 969.77 61C969.77 61.6293 969.876 62.1733 970.09 62.632C970.303 63.0907 970.602 63.4427 970.986 63.688C971.38 63.9227 971.85 64.04 972.394 64.04C972.98 64.04 973.455 63.928 973.818 63.704C974.191 63.48 974.49 63.176 974.714 62.792L975.722 63.384C975.519 63.7467 975.258 64.0613 974.938 64.328C974.628 64.5947 974.26 64.8027 973.834 64.952C973.418 65.0907 972.948 65.16 972.426 65.16ZM981.196 65.16C980.417 65.16 979.697 64.9947 979.036 64.664C978.385 64.3333 977.884 63.864 977.532 63.256L978.62 62.472C978.855 62.9627 979.196 63.3467 979.644 63.624C980.103 63.9013 980.652 64.04 981.292 64.04C981.857 64.04 982.3 63.9333 982.62 63.72C982.94 63.496 983.1 63.208 983.1 62.856C983.1 62.632 983.025 62.4293 982.876 62.248C982.737 62.056 982.465 61.9173 982.06 61.832L980.14 61.432C979.361 61.272 978.801 61.0053 978.46 60.632C978.129 60.2587 977.964 59.7947 977.964 59.24C977.964 58.8027 978.087 58.4027 978.332 58.04C978.588 57.6773 978.945 57.3893 979.404 57.176C979.873 56.952 980.423 56.84 981.052 56.84C981.841 56.84 982.508 56.9947 983.052 57.304C983.596 57.6133 984.001 58.0507 984.268 58.616L983.196 59.32C983.015 58.8507 982.721 58.5093 982.316 58.296C981.911 58.072 981.489 57.96 981.052 57.96C980.668 57.96 980.337 58.0133 980.06 58.12C979.793 58.2267 979.585 58.376 979.436 58.568C979.297 58.7493 979.228 58.9573 979.228 59.192C979.228 59.4267 979.308 59.6453 979.468 59.848C979.628 60.04 979.927 60.1787 980.364 60.264L982.364 60.68C983.111 60.8293 983.633 61.0747 983.932 61.416C984.231 61.7573 984.38 62.1733 984.38 62.664C984.38 63.1653 984.247 63.608 983.98 63.992C983.713 64.3653 983.34 64.6533 982.86 64.856C982.38 65.0587 981.825 65.16 981.196 65.16ZM989.634 65.16C988.855 65.16 988.135 64.9947 987.474 64.664C986.823 64.3333 986.322 63.864 985.97 63.256L987.058 62.472C987.292 62.9627 987.634 63.3467 988.082 63.624C988.54 63.9013 989.09 64.04 989.73 64.04C990.295 64.04 990.738 63.9333 991.058 63.72C991.378 63.496 991.538 63.208 991.538 62.856C991.538 62.632 991.463 62.4293 991.314 62.248C991.175 62.056 990.903 61.9173 990.498 61.832L988.578 61.432C987.799 61.272 987.239 61.0053 986.898 60.632C986.567 60.2587 986.402 59.7947 986.402 59.24C986.402 58.8027 986.524 58.4027 986.77 58.04C987.026 57.6773 987.383 57.3893 987.842 57.176C988.311 56.952 988.86 56.84 989.49 56.84C990.279 56.84 990.946 56.9947 991.49 57.304C992.034 57.6133 992.439 58.0507 992.706 58.616L991.634 59.32C991.452 58.8507 991.159 58.5093 990.754 58.296C990.348 58.072 989.927 57.96 989.49 57.96C989.106 57.96 988.775 58.0133 988.498 58.12C988.231 58.2267 988.023 58.376 987.874 58.568C987.735 58.7493 987.666 58.9573 987.666 59.192C987.666 59.4267 987.746 59.6453 987.906 59.848C988.066 60.04 988.364 60.1787 988.802 60.264L990.802 60.68C991.548 60.8293 992.071 61.0747 992.37 61.416C992.668 61.7573 992.818 62.1733 992.818 62.664C992.818 63.1653 992.684 63.608 992.418 63.992C992.151 64.3653 991.778 64.6533 991.298 64.856C990.818 65.0587 990.263 65.16 989.634 65.16Z" fill="#F0F1F3"/>
<path d="M1023.46 54.44C1024.17 54.44 1024.79 54.5733 1025.31 54.84C1025.85 55.096 1026.26 55.464 1026.56 55.944C1026.86 56.424 1027.01 56.9947 1027.01 57.656C1027.01 58.3173 1026.86 58.888 1026.56 59.368C1026.26 59.848 1025.85 60.2213 1025.31 60.488C1024.79 60.744 1024.17 60.872 1023.46 60.872H1021.01V65H1019.73V54.44H1023.46ZM1023.26 59.672C1024.1 59.672 1024.7 59.5013 1025.09 59.16C1025.47 58.808 1025.66 58.3067 1025.66 57.656C1025.66 56.9947 1025.47 56.4933 1025.09 56.152C1024.7 55.8107 1024.1 55.64 1023.26 55.64H1021.01V59.672H1023.26ZM1032.43 56.84C1033.18 56.84 1033.85 57.0053 1034.43 57.336C1035.01 57.6667 1035.47 58.1467 1035.8 58.776C1036.13 59.3947 1036.3 60.136 1036.3 61C1036.3 61.864 1036.13 62.6107 1035.8 63.24C1035.47 63.8587 1035.01 64.3333 1034.43 64.664C1033.85 64.9947 1033.18 65.16 1032.43 65.16C1031.68 65.16 1031.01 64.9947 1030.43 64.664C1029.84 64.3333 1029.38 63.8587 1029.05 63.24C1028.72 62.6107 1028.55 61.864 1028.55 61C1028.55 60.136 1028.72 59.3947 1029.05 58.776C1029.38 58.1467 1029.84 57.6667 1030.43 57.336C1031.01 57.0053 1031.68 56.84 1032.43 56.84ZM1032.43 57.944C1031.88 57.944 1031.42 58.0667 1031.03 58.312C1030.65 58.5573 1030.35 58.9093 1030.14 59.368C1029.93 59.816 1029.83 60.36 1029.83 61C1029.83 61.6293 1029.93 62.1733 1030.14 62.632C1030.35 63.0907 1030.65 63.4427 1031.03 63.688C1031.42 63.9333 1031.88 64.056 1032.43 64.056C1032.97 64.056 1033.43 63.9333 1033.82 63.688C1034.2 63.4427 1034.49 63.0907 1034.7 62.632C1034.91 62.1733 1035.02 61.6293 1035.02 61C1035.02 60.36 1034.91 59.816 1034.7 59.368C1034.49 58.9093 1034.2 58.5573 1033.82 58.312C1033.43 58.0667 1032.97 57.944 1032.43 57.944ZM1038.71 65V57H1039.75L1039.92 58.312C1040.15 57.8213 1040.47 57.4533 1040.9 57.208C1041.34 56.9627 1041.86 56.84 1042.48 56.84C1042.62 56.84 1042.77 56.8507 1042.93 56.872C1043.1 56.8933 1043.25 56.936 1043.36 57L1043.14 58.168C1043.02 58.1253 1042.89 58.0933 1042.75 58.072C1042.62 58.0507 1042.42 58.04 1042.16 58.04C1041.83 58.04 1041.5 58.136 1041.15 58.328C1040.82 58.52 1040.55 58.8133 1040.32 59.208C1040.1 59.592 1039.99 60.0827 1039.99 60.68V65H1038.71ZM1046.64 54.728V62.792C1046.64 63.1867 1046.75 63.48 1046.98 63.672C1047.2 63.864 1047.49 63.96 1047.84 63.96C1048.15 63.96 1048.42 63.9067 1048.64 63.8C1048.87 63.6933 1049.07 63.5493 1049.25 63.368L1049.7 64.44C1049.45 64.664 1049.16 64.84 1048.82 64.968C1048.49 65.096 1048.1 65.16 1047.67 65.16C1047.26 65.16 1046.88 65.0907 1046.53 64.952C1046.18 64.8027 1045.89 64.5733 1045.68 64.264C1045.48 63.944 1045.37 63.528 1045.36 63.016V55.08L1046.64 54.728ZM1049.55 57V58.104H1043.76V57H1049.55ZM1054.39 53.24C1054.67 53.24 1054.93 53.272 1055.18 53.336C1055.42 53.4 1055.61 53.4907 1055.75 53.608L1055.42 54.648C1055.29 54.5627 1055.15 54.504 1055 54.472C1054.85 54.4293 1054.69 54.408 1054.5 54.408C1054.05 54.408 1053.69 54.52 1053.43 54.744C1053.18 54.9573 1053.05 55.304 1053.05 55.784V57V57.416V65H1051.77V55.656C1051.77 55.304 1051.82 54.9787 1051.93 54.68C1052.03 54.3813 1052.19 54.1253 1052.41 53.912C1052.63 53.6987 1052.91 53.5333 1053.24 53.416C1053.57 53.2987 1053.95 53.24 1054.39 53.24ZM1055.72 57V58.104H1050.17V57H1055.72ZM1060.52 56.84C1061.28 56.84 1061.94 57.0053 1062.52 57.336C1063.11 57.6667 1063.56 58.1467 1063.89 58.776C1064.23 59.3947 1064.39 60.136 1064.39 61C1064.39 61.864 1064.23 62.6107 1063.89 63.24C1063.56 63.8587 1063.11 64.3333 1062.52 64.664C1061.94 64.9947 1061.28 65.16 1060.52 65.16C1059.77 65.16 1059.11 64.9947 1058.52 64.664C1057.93 64.3333 1057.47 63.8587 1057.14 63.24C1056.81 62.6107 1056.65 61.864 1056.65 61C1056.65 60.136 1056.81 59.3947 1057.14 58.776C1057.47 58.1467 1057.93 57.6667 1058.52 57.336C1059.11 57.0053 1059.77 56.84 1060.52 56.84ZM1060.52 57.944C1059.97 57.944 1059.51 58.0667 1059.13 58.312C1058.74 58.5573 1058.44 58.9093 1058.23 59.368C1058.03 59.816 1057.93 60.36 1057.93 61C1057.93 61.6293 1058.03 62.1733 1058.23 62.632C1058.44 63.0907 1058.74 63.4427 1059.13 63.688C1059.51 63.9333 1059.97 64.056 1060.52 64.056C1061.06 64.056 1061.53 63.9333 1061.91 63.688C1062.29 63.4427 1062.59 63.0907 1062.79 62.632C1063 62.1733 1063.11 61.6293 1063.11 61C1063.11 60.36 1063 59.816 1062.79 59.368C1062.59 58.9093 1062.29 58.5573 1061.91 58.312C1061.53 58.0667 1061.06 57.944 1060.52 57.944ZM1068.02 53.32V62.968C1068.02 63.3733 1068.09 63.656 1068.24 63.816C1068.39 63.9653 1068.63 64.04 1068.96 64.04C1069.17 64.04 1069.35 64.024 1069.49 63.992C1069.63 63.96 1069.81 63.9013 1070.05 63.816L1069.84 64.936C1069.67 65.0107 1069.48 65.064 1069.28 65.096C1069.08 65.1387 1068.87 65.16 1068.66 65.16C1068.01 65.16 1067.52 64.984 1067.2 64.632C1066.89 64.28 1066.74 63.7413 1066.74 63.016V53.32H1068.02ZM1072.33 55.464C1072.04 55.464 1071.81 55.3787 1071.63 55.208C1071.46 55.0267 1071.37 54.792 1071.37 54.504C1071.37 54.216 1071.46 53.9867 1071.63 53.816C1071.81 53.6347 1072.04 53.544 1072.33 53.544C1072.62 53.544 1072.85 53.6347 1073.02 53.816C1073.2 53.9867 1073.29 54.216 1073.29 54.504C1073.29 54.792 1073.2 55.0267 1073.02 55.208C1072.85 55.3787 1072.62 55.464 1072.33 55.464ZM1072.97 57V65H1071.69V57H1072.97ZM1079.25 56.84C1080.01 56.84 1080.68 57.0053 1081.25 57.336C1081.84 57.6667 1082.3 58.1467 1082.63 58.776C1082.96 59.3947 1083.13 60.136 1083.13 61C1083.13 61.864 1082.96 62.6107 1082.63 63.24C1082.3 63.8587 1081.84 64.3333 1081.25 64.664C1080.68 64.9947 1080.01 65.16 1079.25 65.16C1078.51 65.16 1077.84 64.9947 1077.25 64.664C1076.67 64.3333 1076.21 63.8587 1075.88 63.24C1075.55 62.6107 1075.38 61.864 1075.38 61C1075.38 60.136 1075.55 59.3947 1075.88 58.776C1076.21 58.1467 1076.67 57.6667 1077.25 57.336C1077.84 57.0053 1078.51 56.84 1079.25 56.84ZM1079.25 57.944C1078.71 57.944 1078.25 58.0667 1077.86 58.312C1077.48 58.5573 1077.18 58.9093 1076.97 59.368C1076.76 59.816 1076.66 60.36 1076.66 61C1076.66 61.6293 1076.76 62.1733 1076.97 62.632C1077.18 63.0907 1077.48 63.4427 1077.86 63.688C1078.25 63.9333 1078.71 64.056 1079.25 64.056C1079.8 64.056 1080.26 63.9333 1080.65 63.688C1081.03 63.4427 1081.32 63.0907 1081.53 62.632C1081.74 62.1733 1081.85 61.6293 1081.85 61C1081.85 60.36 1081.74 59.816 1081.53 59.368C1081.32 58.9093 1081.03 58.5573 1080.65 58.312C1080.26 58.0667 1079.8 57.944 1079.25 57.944Z" fill="#F0F1F3"/>
<path d="M1110.73 65V54.44H1114.49C1115.74 54.44 1116.65 54.7013 1117.22 55.224C1117.8 55.7467 1118.09 56.456 1118.09 57.352C1118.09 57.8853 1117.93 58.3707 1117.62 58.808C1117.31 59.2347 1116.88 59.5067 1116.31 59.624V59.64C1116.94 59.7573 1117.44 60.0453 1117.8 60.504C1118.17 60.952 1118.36 61.464 1118.36 62.04C1118.36 62.936 1118.02 63.656 1117.35 64.2C1116.68 64.7333 1115.72 65 1114.47 65H1110.73ZM1112.01 63.8H1114.78C1115.53 63.8 1116.09 63.6453 1116.46 63.336C1116.83 63.0267 1117.02 62.5947 1117.02 62.04C1117.02 61.4747 1116.83 61.0427 1116.46 60.744C1116.09 60.4347 1115.53 60.28 1114.78 60.28H1112.01V63.8ZM1112.01 59.08H1114.5C1116 59.08 1116.74 58.504 1116.74 57.352C1116.74 56.2107 1116 55.64 1114.5 55.64H1112.01V59.08ZM1122.16 53.32V62.968C1122.16 63.3733 1122.23 63.656 1122.38 63.816C1122.53 63.9653 1122.77 64.04 1123.1 64.04C1123.31 64.04 1123.49 64.024 1123.63 63.992C1123.77 63.96 1123.95 63.9013 1124.19 63.816L1123.98 64.936C1123.81 65.0107 1123.62 65.064 1123.42 65.096C1123.22 65.1387 1123.01 65.16 1122.8 65.16C1122.15 65.16 1121.66 64.984 1121.34 64.632C1121.03 64.28 1120.88 63.7413 1120.88 63.016V53.32H1122.16ZM1129.14 56.84C1129.9 56.84 1130.57 57.0053 1131.14 57.336C1131.73 57.6667 1132.19 58.1467 1132.52 58.776C1132.85 59.3947 1133.02 60.136 1133.02 61C1133.02 61.864 1132.85 62.6107 1132.52 63.24C1132.19 63.8587 1131.73 64.3333 1131.14 64.664C1130.57 64.9947 1129.9 65.16 1129.14 65.16C1128.4 65.16 1127.73 64.9947 1127.14 64.664C1126.56 64.3333 1126.1 63.8587 1125.77 63.24C1125.44 62.6107 1125.27 61.864 1125.27 61C1125.27 60.136 1125.44 59.3947 1125.77 58.776C1126.1 58.1467 1126.56 57.6667 1127.14 57.336C1127.73 57.0053 1128.4 56.84 1129.14 56.84ZM1129.14 57.944C1128.6 57.944 1128.14 58.0667 1127.75 58.312C1127.37 58.5573 1127.07 58.9093 1126.86 59.368C1126.65 59.816 1126.55 60.36 1126.55 61C1126.55 61.6293 1126.65 62.1733 1126.86 62.632C1127.07 63.0907 1127.37 63.4427 1127.75 63.688C1128.14 63.9333 1128.6 64.056 1129.14 64.056C1129.69 64.056 1130.15 63.9333 1130.54 63.688C1130.92 63.4427 1131.21 63.0907 1131.42 62.632C1131.63 62.1733 1131.74 61.6293 1131.74 61C1131.74 60.36 1131.63 59.816 1131.42 59.368C1131.21 58.9093 1130.92 58.5573 1130.54 58.312C1130.15 58.0667 1129.69 57.944 1129.14 57.944ZM1142.16 55.528L1142.45 56.664C1142.44 56.664 1142.42 56.664 1142.4 56.664C1142.38 56.664 1142.36 56.664 1142.34 56.664C1141.81 56.664 1141.41 56.7707 1141.12 56.984C1140.84 57.1867 1140.71 57.5173 1140.71 57.976L1139.92 57.576C1139.92 57.16 1140.02 56.7973 1140.21 56.488C1140.4 56.1787 1140.66 55.944 1140.99 55.784C1141.32 55.6133 1141.69 55.528 1142.08 55.528C1142.09 55.528 1142.1 55.528 1142.11 55.528C1142.13 55.528 1142.15 55.528 1142.16 55.528ZM1139.73 63.976C1140.49 63.976 1141.08 64.152 1141.51 64.504C1141.93 64.8453 1142.15 65.304 1142.15 65.88C1142.15 66.4027 1141.97 66.856 1141.62 67.24C1141.28 67.624 1140.81 67.9173 1140.23 68.12C1139.65 68.3333 1139 68.44 1138.27 68.44C1137.01 68.44 1136.07 68.2267 1135.44 67.8C1134.82 67.3733 1134.51 66.8613 1134.51 66.264C1134.51 65.8373 1134.65 65.4533 1134.93 65.112C1135.22 64.7813 1135.7 64.5947 1136.37 64.552L1136.26 64.792C1135.89 64.696 1135.59 64.536 1135.33 64.312C1135.08 64.0773 1134.96 63.7413 1134.96 63.304C1134.96 62.8667 1135.12 62.4933 1135.44 62.184C1135.77 61.864 1136.26 61.6667 1136.9 61.592L1137.75 62.024H1137.59C1137.06 62.0773 1136.69 62.2107 1136.47 62.424C1136.25 62.6267 1136.15 62.8507 1136.15 63.096C1136.15 63.3947 1136.25 63.6187 1136.47 63.768C1136.69 63.9067 1137 63.976 1137.39 63.976H1139.73ZM1138.26 67.368C1138.88 67.368 1139.38 67.304 1139.78 67.176C1140.18 67.048 1140.48 66.8827 1140.67 66.68C1140.87 66.4773 1140.96 66.2587 1140.96 66.024C1140.96 65.736 1140.84 65.5067 1140.61 65.336C1140.39 65.1653 1139.97 65.08 1139.38 65.08H1136.91C1136.57 65.08 1136.28 65.1653 1136.05 65.336C1135.81 65.5173 1135.7 65.7627 1135.7 66.072C1135.7 66.4667 1135.92 66.7813 1136.37 67.016C1136.83 67.2507 1137.46 67.368 1138.26 67.368ZM1138.15 56.84C1138.79 56.84 1139.35 56.9573 1139.84 57.192C1140.34 57.416 1140.73 57.7307 1141.01 58.136C1141.29 58.5413 1141.43 59.0107 1141.43 59.544C1141.43 60.0667 1141.29 60.536 1141.01 60.952C1140.73 61.3573 1140.34 61.6773 1139.84 61.912C1139.35 62.136 1138.79 62.248 1138.15 62.248C1137.09 62.248 1136.28 61.9973 1135.71 61.496C1135.15 60.984 1134.87 60.3333 1134.87 59.544C1134.87 59.0107 1135 58.5413 1135.28 58.136C1135.57 57.7307 1135.96 57.416 1136.45 57.192C1136.94 56.9573 1137.51 56.84 1138.15 56.84ZM1138.15 57.88C1137.59 57.88 1137.13 58.0347 1136.75 58.344C1136.38 58.6427 1136.19 59.0427 1136.19 59.544C1136.19 60.0347 1136.38 60.4347 1136.75 60.744C1137.13 61.0533 1137.59 61.208 1138.15 61.208C1138.7 61.208 1139.16 61.0533 1139.54 60.744C1139.91 60.4347 1140.1 60.0347 1140.1 59.544C1140.1 59.0427 1139.91 58.6427 1139.54 58.344C1139.16 58.0347 1138.7 57.88 1138.15 57.88Z" fill="#F0F1F3"/>
<path d="M1177.24 62.296C1177.02 62.8933 1176.7 63.4107 1176.28 63.848C1175.86 64.2747 1175.37 64.6 1174.81 64.824C1174.25 65.048 1173.65 65.16 1172.98 65.16C1171.98 65.16 1171.11 64.9413 1170.38 64.504C1169.65 64.056 1169.09 63.4267 1168.68 62.616C1168.29 61.8053 1168.09 60.84 1168.09 59.72C1168.09 58.6 1168.29 57.6347 1168.68 56.824C1169.09 56.0133 1169.65 55.3893 1170.38 54.952C1171.11 54.504 1171.97 54.28 1172.95 54.28C1173.63 54.28 1174.24 54.376 1174.78 54.568C1175.31 54.7493 1175.76 55.0267 1176.14 55.4C1176.52 55.7627 1176.82 56.2107 1177.05 56.744L1175.78 57.336C1175.55 56.728 1175.21 56.2693 1174.76 55.96C1174.32 55.64 1173.75 55.48 1173.05 55.48C1172.33 55.48 1171.7 55.6507 1171.16 55.992C1170.62 56.3227 1170.19 56.8027 1169.88 57.432C1169.58 58.0613 1169.43 58.824 1169.43 59.72C1169.43 60.6053 1169.58 61.368 1169.86 62.008C1170.15 62.6373 1170.56 63.1227 1171.1 63.464C1171.63 63.7947 1172.26 63.96 1172.98 63.96C1173.69 63.96 1174.3 63.784 1174.82 63.432C1175.35 63.0693 1175.73 62.5307 1175.96 61.816L1177.24 62.296ZM1182.77 56.84C1183.53 56.84 1184.19 57.0053 1184.77 57.336C1185.36 57.6667 1185.81 58.1467 1186.14 58.776C1186.48 59.3947 1186.64 60.136 1186.64 61C1186.64 61.864 1186.48 62.6107 1186.14 63.24C1185.81 63.8587 1185.36 64.3333 1184.77 64.664C1184.19 64.9947 1183.53 65.16 1182.77 65.16C1182.02 65.16 1181.36 64.9947 1180.77 64.664C1180.18 64.3333 1179.72 63.8587 1179.39 63.24C1179.06 62.6107 1178.9 61.864 1178.9 61C1178.9 60.136 1179.06 59.3947 1179.39 58.776C1179.72 58.1467 1180.18 57.6667 1180.77 57.336C1181.36 57.0053 1182.02 56.84 1182.77 56.84ZM1182.77 57.944C1182.22 57.944 1181.76 58.0667 1181.38 58.312C1180.99 58.5573 1180.69 58.9093 1180.48 59.368C1180.28 59.816 1180.18 60.36 1180.18 61C1180.18 61.6293 1180.28 62.1733 1180.48 62.632C1180.69 63.0907 1180.99 63.4427 1181.38 63.688C1181.76 63.9333 1182.22 64.056 1182.77 64.056C1183.31 64.056 1183.78 63.9333 1184.16 63.688C1184.54 63.4427 1184.84 63.0907 1185.04 62.632C1185.25 62.1733 1185.36 61.6293 1185.36 61C1185.36 60.36 1185.25 59.816 1185.04 59.368C1184.84 58.9093 1184.54 58.5573 1184.16 58.312C1183.78 58.0667 1183.31 57.944 1182.77 57.944ZM1189.05 65V57H1190.17L1190.28 58.792L1190.07 58.616C1190.25 58.1893 1190.47 57.848 1190.76 57.592C1191.05 57.3253 1191.38 57.1333 1191.75 57.016C1192.14 56.8987 1192.53 56.84 1192.94 56.84C1193.51 56.84 1194.04 56.952 1194.51 57.176C1194.98 57.3893 1195.35 57.72 1195.63 58.168C1195.91 58.616 1196.06 59.1867 1196.06 59.88V65H1194.78V60.328C1194.78 59.4427 1194.59 58.8293 1194.2 58.488C1193.83 58.136 1193.37 57.96 1192.81 57.96C1192.43 57.96 1192.04 58.0507 1191.66 58.232C1191.27 58.4133 1190.95 58.7067 1190.7 59.112C1190.45 59.5173 1190.33 60.0613 1190.33 60.744V65H1189.05ZM1200.74 54.728V62.792C1200.74 63.1867 1200.85 63.48 1201.07 63.672C1201.3 63.864 1201.58 63.96 1201.94 63.96C1202.24 63.96 1202.51 63.9067 1202.74 63.8C1202.96 63.6933 1203.16 63.5493 1203.34 63.368L1203.79 64.44C1203.55 64.664 1203.25 64.84 1202.91 64.968C1202.58 65.096 1202.2 65.16 1201.76 65.16C1201.35 65.16 1200.98 65.0907 1200.62 64.952C1200.27 64.8027 1199.99 64.5733 1199.78 64.264C1199.57 63.944 1199.47 63.528 1199.46 63.016V55.08L1200.74 54.728ZM1203.65 57V58.104H1197.86V57H1203.65ZM1210.22 59.832C1210.22 59.2347 1210.06 58.776 1209.74 58.456C1209.42 58.1253 1208.97 57.96 1208.38 57.96C1207.83 57.96 1207.36 58.0827 1206.97 58.328C1206.59 58.5627 1206.31 58.9467 1206.13 59.48L1205.09 58.84C1205.3 58.2427 1205.69 57.7627 1206.27 57.4C1206.85 57.0267 1207.56 56.84 1208.41 56.84C1208.99 56.84 1209.51 56.9413 1209.98 57.144C1210.45 57.336 1210.82 57.6347 1211.09 58.04C1211.36 58.4347 1211.5 58.9467 1211.5 59.576V63.448C1211.5 63.832 1211.71 64.024 1212.11 64.024C1212.31 64.024 1212.51 63.9973 1212.7 63.944L1212.64 64.952C1212.43 65.0587 1212.15 65.112 1211.81 65.112C1211.5 65.112 1211.22 65.0533 1210.97 64.936C1210.73 64.8187 1210.54 64.6427 1210.4 64.408C1210.26 64.1627 1210.19 63.8587 1210.19 63.496V63.336L1210.51 63.384C1210.38 63.8 1210.16 64.1413 1209.85 64.408C1209.55 64.664 1209.2 64.856 1208.81 64.984C1208.43 65.1013 1208.05 65.16 1207.68 65.16C1207.21 65.16 1206.77 65.08 1206.37 64.92C1205.96 64.76 1205.64 64.52 1205.39 64.2C1205.16 63.8693 1205.04 63.464 1205.04 62.984C1205.04 62.3867 1205.24 61.896 1205.63 61.512C1206.04 61.1173 1206.6 60.8507 1207.31 60.712L1210.48 60.088V61.144L1207.9 61.672C1207.38 61.7787 1206.99 61.928 1206.73 62.12C1206.48 62.312 1206.35 62.5787 1206.35 62.92C1206.35 63.2507 1206.48 63.5227 1206.73 63.736C1207 63.9387 1207.37 64.04 1207.85 64.04C1208.16 64.04 1208.46 64.0027 1208.73 63.928C1209.02 63.8427 1209.28 63.72 1209.5 63.56C1209.73 63.3893 1209.9 63.1813 1210.03 62.936C1210.16 62.68 1210.22 62.3813 1210.22 62.04V59.832ZM1217.93 56.84C1218.48 56.84 1218.97 56.9253 1219.38 57.096C1219.81 57.2667 1220.18 57.512 1220.49 57.832C1220.79 58.152 1221.05 58.5307 1221.24 58.968L1220.02 59.544C1219.85 59.032 1219.59 58.6427 1219.24 58.376C1218.9 58.0987 1218.45 57.96 1217.89 57.96C1217.36 57.96 1216.9 58.0827 1216.52 58.328C1216.13 58.5627 1215.84 58.9093 1215.64 59.368C1215.43 59.816 1215.33 60.36 1215.33 61C1215.33 61.6293 1215.43 62.1733 1215.64 62.632C1215.84 63.0907 1216.13 63.4427 1216.52 63.688C1216.9 63.9227 1217.36 64.04 1217.89 64.04C1218.31 64.04 1218.67 63.976 1218.97 63.848C1219.27 63.72 1219.53 63.5333 1219.72 63.288C1219.92 63.0427 1220.06 62.744 1220.13 62.392L1221.32 62.808C1221.14 63.2987 1220.89 63.72 1220.57 64.072C1220.26 64.424 1219.88 64.696 1219.43 64.888C1218.99 65.0693 1218.49 65.16 1217.93 65.16C1217.18 65.16 1216.51 64.9947 1215.93 64.664C1215.34 64.3333 1214.88 63.8587 1214.55 63.24C1214.22 62.6107 1214.05 61.864 1214.05 61C1214.05 60.136 1214.22 59.3947 1214.55 58.776C1214.88 58.1467 1215.34 57.6667 1215.93 57.336C1216.51 57.0053 1217.18 56.84 1217.93 56.84ZM1225.45 54.728V62.792C1225.45 63.1867 1225.57 63.48 1225.79 63.672C1226.01 63.864 1226.3 63.96 1226.65 63.96C1226.96 63.96 1227.23 63.9067 1227.45 63.8C1227.68 63.6933 1227.88 63.5493 1228.06 63.368L1228.51 64.44C1228.26 64.664 1227.97 64.84 1227.63 64.968C1227.3 65.096 1226.92 65.16 1226.48 65.16C1226.07 65.16 1225.69 65.0907 1225.34 64.952C1224.99 64.8027 1224.71 64.5733 1224.49 64.264C1224.29 63.944 1224.18 63.528 1224.17 63.016V55.08L1225.45 54.728ZM1228.37 57V58.104H1222.57V57H1228.37Z" fill="#F0F1F3"/>
<path d="M1433.24 62.296C1433.02 62.8933 1432.7 63.4107 1432.28 63.848C1431.86 64.2747 1431.37 64.6 1430.81 64.824C1430.25 65.048 1429.65 65.16 1428.98 65.16C1427.98 65.16 1427.11 64.9413 1426.38 64.504C1425.65 64.056 1425.09 63.4267 1424.68 62.616C1424.29 61.8053 1424.09 60.84 1424.09 59.72C1424.09 58.6 1424.29 57.6347 1424.68 56.824C1425.09 56.0133 1425.65 55.3893 1426.38 54.952C1427.11 54.504 1427.97 54.28 1428.95 54.28C1429.63 54.28 1430.24 54.376 1430.78 54.568C1431.31 54.7493 1431.76 55.0267 1432.14 55.4C1432.52 55.7627 1432.82 56.2107 1433.05 56.744L1431.78 57.336C1431.55 56.728 1431.21 56.2693 1430.76 55.96C1430.32 55.64 1429.75 55.48 1429.05 55.48C1428.33 55.48 1427.7 55.6507 1427.16 55.992C1426.62 56.3227 1426.19 56.8027 1425.88 57.432C1425.58 58.0613 1425.43 58.824 1425.43 59.72C1425.43 60.6053 1425.58 61.368 1425.86 62.008C1426.15 62.6373 1426.56 63.1227 1427.1 63.464C1427.63 63.7947 1428.26 63.96 1428.98 63.96C1429.69 63.96 1430.3 63.784 1430.82 63.432C1431.35 63.0693 1431.73 62.5307 1431.96 61.816L1433.24 62.296ZM1438.77 56.84C1439.53 56.84 1440.19 57.0053 1440.77 57.336C1441.36 57.6667 1441.81 58.1467 1442.14 58.776C1442.48 59.3947 1442.64 60.136 1442.64 61C1442.64 61.864 1442.48 62.6107 1442.14 63.24C1441.81 63.8587 1441.36 64.3333 1440.77 64.664C1440.19 64.9947 1439.53 65.16 1438.77 65.16C1438.02 65.16 1437.36 64.9947 1436.77 64.664C1436.18 64.3333 1435.72 63.8587 1435.39 63.24C1435.06 62.6107 1434.9 61.864 1434.9 61C1434.9 60.136 1435.06 59.3947 1435.39 58.776C1435.72 58.1467 1436.18 57.6667 1436.77 57.336C1437.36 57.0053 1438.02 56.84 1438.77 56.84ZM1438.77 57.944C1438.22 57.944 1437.76 58.0667 1437.38 58.312C1436.99 58.5573 1436.69 58.9093 1436.48 59.368C1436.28 59.816 1436.18 60.36 1436.18 61C1436.18 61.6293 1436.28 62.1733 1436.48 62.632C1436.69 63.0907 1436.99 63.4427 1437.38 63.688C1437.76 63.9333 1438.22 64.056 1438.77 64.056C1439.31 64.056 1439.78 63.9333 1440.16 63.688C1440.54 63.4427 1440.84 63.0907 1441.04 62.632C1441.25 62.1733 1441.36 61.6293 1441.36 61C1441.36 60.36 1441.25 59.816 1441.04 59.368C1440.84 58.9093 1440.54 58.5573 1440.16 58.312C1439.78 58.0667 1439.31 57.944 1438.77 57.944ZM1445.05 68.36V57H1446.17L1446.28 58.952L1446.11 58.728C1446.25 58.3547 1446.45 58.0293 1446.73 57.752C1447.01 57.464 1447.34 57.24 1447.74 57.08C1448.13 56.92 1448.56 56.84 1449.02 56.84C1449.67 56.84 1450.27 57.0053 1450.81 57.336C1451.37 57.6667 1451.81 58.1413 1452.14 58.76C1452.47 59.3787 1452.63 60.1253 1452.63 61C1452.63 61.864 1452.46 62.6107 1452.12 63.24C1451.79 63.8587 1451.35 64.3333 1450.79 64.664C1450.24 64.9947 1449.63 65.16 1448.97 65.16C1448.31 65.16 1447.73 65 1447.23 64.68C1446.74 64.3493 1446.38 63.9333 1446.17 63.432L1446.33 63.192V68.36H1445.05ZM1448.84 64.04C1449.63 64.04 1450.25 63.7627 1450.68 63.208C1451.13 62.6533 1451.35 61.9173 1451.35 61C1451.35 60.0827 1451.14 59.3467 1450.7 58.792C1450.27 58.2373 1449.67 57.96 1448.89 57.96C1448.38 57.96 1447.93 58.088 1447.55 58.344C1447.16 58.5893 1446.86 58.9413 1446.65 59.4C1446.44 59.848 1446.33 60.3813 1446.33 61C1446.33 61.608 1446.43 62.1413 1446.63 62.6C1446.85 63.0587 1447.14 63.416 1447.51 63.672C1447.9 63.9173 1448.34 64.04 1448.84 64.04ZM1461.42 57L1457.66 66.344C1457.46 66.8667 1457.24 67.2773 1456.99 67.576C1456.76 67.8853 1456.49 68.104 1456.19 68.232C1455.9 68.3707 1455.57 68.44 1455.18 68.44C1454.82 68.44 1454.48 68.3867 1454.18 68.28C1453.88 68.184 1453.61 68.0507 1453.38 67.88L1453.73 66.76C1453.94 66.952 1454.16 67.0907 1454.4 67.176C1454.64 67.272 1454.88 67.32 1455.12 67.32C1455.4 67.32 1455.66 67.2347 1455.9 67.064C1456.15 66.8933 1456.37 66.5467 1456.58 66.024L1456.99 64.984L1456.19 63.08L1453.65 57H1455.1L1457.1 62.216L1457.6 63.64L1458.18 62.056L1460.05 57H1461.42ZM1463.1 65V57H1464.14L1464.31 58.312C1464.54 57.8213 1464.86 57.4533 1465.29 57.208C1465.73 56.9627 1466.25 56.84 1466.87 56.84C1467.01 56.84 1467.16 56.8507 1467.32 56.872C1467.49 56.8933 1467.64 56.936 1467.75 57L1467.53 58.168C1467.41 58.1253 1467.28 58.0933 1467.15 58.072C1467.01 58.0507 1466.81 58.04 1466.55 58.04C1466.22 58.04 1465.89 58.136 1465.55 58.328C1465.21 58.52 1464.94 58.8133 1464.71 59.208C1464.49 59.592 1464.38 60.0827 1464.38 60.68V65H1463.1ZM1470.27 55.464C1469.98 55.464 1469.75 55.3787 1469.56 55.208C1469.39 55.0267 1469.31 54.792 1469.31 54.504C1469.31 54.216 1469.39 53.9867 1469.56 53.816C1469.75 53.6347 1469.98 53.544 1470.27 53.544C1470.56 53.544 1470.79 53.6347 1470.96 53.816C1471.14 53.9867 1471.23 54.216 1471.23 54.504C1471.23 54.792 1471.14 55.0267 1470.96 55.208C1470.79 55.3787 1470.56 55.464 1470.27 55.464ZM1470.91 57V65H1469.63V57H1470.91ZM1480.61 55.528L1480.9 56.664C1480.89 56.664 1480.88 56.664 1480.85 56.664C1480.83 56.664 1480.81 56.664 1480.79 56.664C1480.27 56.664 1479.86 56.7707 1479.57 56.984C1479.3 57.1867 1479.16 57.5173 1479.16 57.976L1478.37 57.576C1478.37 57.16 1478.47 56.7973 1478.66 56.488C1478.85 56.1787 1479.12 55.944 1479.45 55.784C1479.78 55.6133 1480.14 55.528 1480.53 55.528C1480.55 55.528 1480.56 55.528 1480.57 55.528C1480.59 55.528 1480.6 55.528 1480.61 55.528ZM1478.18 63.976C1478.94 63.976 1479.53 64.152 1479.96 64.504C1480.39 64.8453 1480.6 65.304 1480.6 65.88C1480.6 66.4027 1480.42 66.856 1480.07 67.24C1479.73 67.624 1479.27 67.9173 1478.68 68.12C1478.1 68.3333 1477.45 68.44 1476.73 68.44C1475.47 68.44 1474.52 68.2267 1473.89 67.8C1473.28 67.3733 1472.97 66.8613 1472.97 66.264C1472.97 65.8373 1473.11 65.4533 1473.38 65.112C1473.67 64.7813 1474.15 64.5947 1474.82 64.552L1474.71 64.792C1474.35 64.696 1474.04 64.536 1473.78 64.312C1473.54 64.0773 1473.41 63.7413 1473.41 63.304C1473.41 62.8667 1473.57 62.4933 1473.89 62.184C1474.23 61.864 1474.71 61.6667 1475.35 61.592L1476.2 62.024H1476.04C1475.52 62.0773 1475.14 62.2107 1474.92 62.424C1474.71 62.6267 1474.6 62.8507 1474.6 63.096C1474.6 63.3947 1474.71 63.6187 1474.92 63.768C1475.14 63.9067 1475.45 63.976 1475.85 63.976H1478.18ZM1476.71 67.368C1477.33 67.368 1477.84 67.304 1478.23 67.176C1478.64 67.048 1478.93 66.8827 1479.13 66.68C1479.32 66.4773 1479.41 66.2587 1479.41 66.024C1479.41 65.736 1479.3 65.5067 1479.06 65.336C1478.84 65.1653 1478.43 65.08 1477.83 65.08H1475.37C1475.03 65.08 1474.74 65.1653 1474.5 65.336C1474.27 65.5173 1474.15 65.7627 1474.15 66.072C1474.15 66.4667 1474.37 66.7813 1474.82 67.016C1475.28 67.2507 1475.91 67.368 1476.71 67.368ZM1476.6 56.84C1477.24 56.84 1477.8 56.9573 1478.29 57.192C1478.8 57.416 1479.19 57.7307 1479.46 58.136C1479.74 58.5413 1479.88 59.0107 1479.88 59.544C1479.88 60.0667 1479.74 60.536 1479.46 60.952C1479.19 61.3573 1478.8 61.6773 1478.29 61.912C1477.8 62.136 1477.24 62.248 1476.6 62.248C1475.54 62.248 1474.73 61.9973 1474.17 61.496C1473.6 60.984 1473.32 60.3333 1473.32 59.544C1473.32 59.0107 1473.46 58.5413 1473.73 58.136C1474.02 57.7307 1474.41 57.416 1474.9 57.192C1475.39 56.9573 1475.96 56.84 1476.6 56.84ZM1476.6 57.88C1476.04 57.88 1475.58 58.0347 1475.21 58.344C1474.83 58.6427 1474.65 59.0427 1474.65 59.544C1474.65 60.0347 1474.83 60.4347 1475.21 60.744C1475.58 61.0533 1476.04 61.208 1476.6 61.208C1477.15 61.208 1477.62 61.0533 1477.99 60.744C1478.36 60.4347 1478.55 60.0347 1478.55 59.544C1478.55 59.0427 1478.36 58.6427 1477.99 58.344C1477.62 58.0347 1477.15 57.88 1476.6 57.88ZM1482.39 65V53.32H1483.67V58.2C1483.95 57.72 1484.32 57.3733 1484.78 57.16C1485.24 56.9467 1485.74 56.84 1486.28 56.84C1486.86 56.84 1487.38 56.952 1487.85 57.176C1488.32 57.3893 1488.69 57.72 1488.97 58.168C1489.26 58.616 1489.4 59.1867 1489.4 59.88V65H1488.12V60.328C1488.12 59.4427 1487.93 58.8293 1487.55 58.488C1487.17 58.136 1486.71 57.96 1486.15 57.96C1485.77 57.96 1485.39 58.0507 1485 58.232C1484.62 58.4133 1484.3 58.712 1484.04 59.128C1483.8 59.5333 1483.67 60.0773 1483.67 60.76V65H1482.39ZM1494.08 54.728V62.792C1494.08 63.1867 1494.19 63.48 1494.42 63.672C1494.64 63.864 1494.93 63.96 1495.28 63.96C1495.59 63.96 1495.86 63.9067 1496.08 63.8C1496.3 63.6933 1496.51 63.5493 1496.69 63.368L1497.14 64.44C1496.89 64.664 1496.6 64.84 1496.26 64.968C1495.92 65.096 1495.54 65.16 1495.1 65.16C1494.7 65.16 1494.32 65.0907 1493.97 64.952C1493.62 64.8027 1493.33 64.5733 1493.12 64.264C1492.92 63.944 1492.81 63.528 1492.8 63.016V55.08L1494.08 54.728ZM1496.99 57V58.104H1491.2V57H1496.99ZM1509.42 65.16C1508.33 65.16 1507.38 64.92 1506.56 64.44C1505.73 63.96 1505.09 63.3093 1504.64 62.488C1504.18 61.6667 1503.95 60.744 1503.95 59.72C1503.95 58.6853 1504.18 57.7627 1504.64 56.952C1505.09 56.1307 1505.73 55.48 1506.56 55C1507.38 54.52 1508.33 54.28 1509.42 54.28C1510.51 54.28 1511.46 54.52 1512.28 55C1513.1 55.48 1513.74 56.1307 1514.2 56.952C1514.66 57.7627 1514.89 58.6853 1514.89 59.72C1514.89 60.744 1514.66 61.6667 1514.2 62.488C1513.74 63.3093 1513.1 63.96 1512.28 64.44C1511.46 64.92 1510.51 65.16 1509.42 65.16ZM1509.42 64.12C1510.28 64.12 1511.04 63.928 1511.69 63.544C1512.34 63.1493 1512.85 62.6213 1513.21 61.96C1513.57 61.288 1513.76 60.5413 1513.76 59.72C1513.76 58.8987 1513.57 58.1573 1513.21 57.496C1512.85 56.824 1512.34 56.296 1511.69 55.912C1511.04 55.5173 1510.28 55.32 1509.42 55.32C1508.57 55.32 1507.81 55.5173 1507.15 55.912C1506.5 56.296 1505.99 56.824 1505.63 57.496C1505.26 58.1573 1505.08 58.8987 1505.08 59.72C1505.08 60.5413 1505.26 61.288 1505.63 61.96C1505.99 62.6213 1506.5 63.1493 1507.15 63.544C1507.81 63.928 1508.57 64.12 1509.42 64.12ZM1509.53 62.712C1508.62 62.712 1507.91 62.4507 1507.39 61.928C1506.88 61.3947 1506.62 60.6693 1506.62 59.752C1506.62 58.8347 1506.88 58.1147 1507.39 57.592C1507.91 57.0587 1508.62 56.792 1509.53 56.792C1510.16 56.792 1510.68 56.9307 1511.1 57.208C1511.52 57.4747 1511.82 57.8427 1512.03 58.312L1511.1 58.776C1510.96 58.4347 1510.76 58.1787 1510.51 58.008C1510.25 57.8373 1509.92 57.752 1509.52 57.752C1508.95 57.752 1508.5 57.928 1508.17 58.28C1507.85 58.632 1507.69 59.1227 1507.69 59.752C1507.69 60.3813 1507.85 60.872 1508.17 61.224C1508.5 61.576 1508.95 61.752 1509.52 61.752C1509.94 61.752 1510.29 61.6667 1510.57 61.496C1510.86 61.3147 1511.07 61.0427 1511.21 60.68L1512.09 61.032C1511.89 61.5547 1511.57 61.9653 1511.15 62.264C1510.72 62.5627 1510.18 62.712 1509.53 62.712ZM1522.62 65V63.96C1523.68 63.1813 1524.56 62.4987 1525.26 61.912C1525.98 61.3253 1526.55 60.792 1526.97 60.312C1527.4 59.832 1527.7 59.3787 1527.89 58.952C1528.07 58.5147 1528.16 58.0613 1528.16 57.592C1528.16 56.9627 1527.95 56.456 1527.55 56.072C1527.15 55.6773 1526.61 55.48 1525.92 55.48C1525.19 55.48 1524.61 55.72 1524.17 56.2C1523.74 56.6693 1523.48 57.2987 1523.41 58.088L1522.29 57.416C1522.38 56.7973 1522.58 56.2533 1522.88 55.784C1523.19 55.3147 1523.6 54.9467 1524.11 54.68C1524.63 54.4133 1525.25 54.28 1525.97 54.28C1526.51 54.28 1526.99 54.36 1527.42 54.52C1527.86 54.68 1528.23 54.9093 1528.54 55.208C1528.85 55.496 1529.09 55.8427 1529.25 56.248C1529.42 56.6533 1529.5 57.1013 1529.5 57.592C1529.5 58.2533 1529.34 58.904 1529.02 59.544C1528.7 60.1733 1528.17 60.8347 1527.44 61.528C1526.7 62.2213 1525.7 62.9893 1524.45 63.832V63.848C1524.56 63.8373 1524.72 63.832 1524.93 63.832C1525.14 63.8213 1525.35 63.816 1525.55 63.816C1525.76 63.8053 1525.92 63.8 1526.03 63.8H1529.73V65H1522.62ZM1535.74 65.16C1534.55 65.16 1533.59 64.696 1532.88 63.768C1532.16 62.84 1531.81 61.4907 1531.81 59.72C1531.81 57.9493 1532.16 56.6 1532.88 55.672C1533.59 54.744 1534.55 54.28 1535.74 54.28C1536.95 54.28 1537.9 54.744 1538.61 55.672C1539.32 56.6 1539.68 57.9493 1539.68 59.72C1539.68 61.4907 1539.32 62.84 1538.61 63.768C1537.9 64.696 1536.95 65.16 1535.74 65.16ZM1535.74 64.008C1536.31 64.008 1536.78 63.848 1537.17 63.528C1537.56 63.1973 1537.85 62.712 1538.05 62.072C1538.25 61.432 1538.35 60.648 1538.35 59.72C1538.35 58.792 1538.25 58.008 1538.05 57.368C1537.85 56.728 1537.56 56.248 1537.17 55.928C1536.78 55.5973 1536.31 55.432 1535.74 55.432C1535.18 55.432 1534.7 55.5973 1534.3 55.928C1533.92 56.248 1533.62 56.728 1533.42 57.368C1533.23 58.008 1533.13 58.792 1533.13 59.72C1533.13 60.648 1533.23 61.432 1533.42 62.072C1533.62 62.712 1533.92 63.1973 1534.3 63.528C1534.7 63.848 1535.18 64.008 1535.74 64.008ZM1541.9 65V63.96C1542.96 63.1813 1543.84 62.4987 1544.54 61.912C1545.26 61.3253 1545.83 60.792 1546.25 60.312C1546.68 59.832 1546.99 59.3787 1547.17 58.952C1547.35 58.5147 1547.44 58.0613 1547.44 57.592C1547.44 56.9627 1547.24 56.456 1546.83 56.072C1546.44 55.6773 1545.89 55.48 1545.2 55.48C1544.47 55.48 1543.89 55.72 1543.45 56.2C1543.02 56.6693 1542.76 57.2987 1542.69 58.088L1541.57 57.416C1541.66 56.7973 1541.86 56.2533 1542.16 55.784C1542.47 55.3147 1542.88 54.9467 1543.39 54.68C1543.91 54.4133 1544.53 54.28 1545.25 54.28C1545.79 54.28 1546.28 54.36 1546.7 54.52C1547.14 54.68 1547.51 54.9093 1547.82 55.208C1548.13 55.496 1548.37 55.8427 1548.53 56.248C1548.7 56.6533 1548.78 57.1013 1548.78 57.592C1548.78 58.2533 1548.62 58.904 1548.3 59.544C1547.98 60.1733 1547.45 60.8347 1546.72 61.528C1545.98 62.2213 1544.99 62.9893 1543.73 63.832V63.848C1543.84 63.8373 1544 63.832 1544.21 63.832C1544.42 63.8213 1544.63 63.816 1544.83 63.816C1545.04 63.8053 1545.2 63.8 1545.31 63.8H1549.01V65H1541.9ZM1551.23 65V63.96C1552.29 63.1813 1553.17 62.4987 1553.87 61.912C1554.59 61.3253 1555.16 60.792 1555.58 60.312C1556.01 59.832 1556.31 59.3787 1556.49 58.952C1556.68 58.5147 1556.77 58.0613 1556.77 57.592C1556.77 56.9627 1556.56 56.456 1556.16 56.072C1555.76 55.6773 1555.22 55.48 1554.53 55.48C1553.8 55.48 1553.22 55.72 1552.78 56.2C1552.35 56.6693 1552.09 57.2987 1552.01 58.088L1550.89 57.416C1550.99 56.7973 1551.19 56.2533 1551.49 55.784C1551.8 55.3147 1552.21 54.9467 1552.72 54.68C1553.24 54.4133 1553.86 54.28 1554.57 54.28C1555.12 54.28 1555.6 54.36 1556.03 54.52C1556.47 54.68 1556.84 54.9093 1557.15 55.208C1557.46 55.496 1557.69 55.8427 1557.85 56.248C1558.03 56.6533 1558.11 57.1013 1558.11 57.592C1558.11 58.2533 1557.95 58.904 1557.63 59.544C1557.31 60.1733 1556.78 60.8347 1556.05 61.528C1555.31 62.2213 1554.31 62.9893 1553.05 63.832V63.848C1553.17 63.8373 1553.33 63.832 1553.53 63.832C1553.75 63.8213 1553.96 63.816 1554.16 63.816C1554.37 63.8053 1554.53 63.8 1554.64 63.8H1558.33V65H1551.23ZM1570.28 54.44C1571 54.44 1571.62 54.5733 1572.14 54.84C1572.67 55.096 1573.09 55.464 1573.39 55.944C1573.69 56.424 1573.84 56.9947 1573.84 57.656C1573.84 58.3173 1573.69 58.888 1573.39 59.368C1573.09 59.848 1572.67 60.2213 1572.14 60.488C1571.62 60.744 1571 60.872 1570.28 60.872H1567.84V65H1566.56V54.44H1570.28ZM1570.09 59.672C1570.92 59.672 1571.53 59.5013 1571.92 59.16C1572.3 58.808 1572.49 58.3067 1572.49 57.656C1572.49 56.9947 1572.3 56.4933 1571.92 56.152C1571.53 55.8107 1570.92 55.64 1570.09 55.64H1567.84V59.672H1570.09ZM1576.72 55.464C1576.43 55.464 1576.2 55.3787 1576.02 55.208C1575.85 55.0267 1575.76 54.792 1575.76 54.504C1575.76 54.216 1575.85 53.9867 1576.02 53.816C1576.2 53.6347 1576.43 53.544 1576.72 53.544C1577.01 53.544 1577.24 53.6347 1577.41 53.816C1577.59 53.9867 1577.68 54.216 1577.68 54.504C1577.68 54.792 1577.59 55.0267 1577.41 55.208C1577.24 55.3787 1577.01 55.464 1576.72 55.464ZM1577.36 57V65H1576.08V57H1577.36ZM1583.64 56.84C1584.2 56.84 1584.68 56.9253 1585.1 57.096C1585.53 57.2667 1585.89 57.512 1586.2 57.832C1586.51 58.152 1586.76 58.5307 1586.96 58.968L1585.74 59.544C1585.57 59.032 1585.31 58.6427 1584.96 58.376C1584.61 58.0987 1584.17 57.96 1583.61 57.96C1583.08 57.96 1582.62 58.0827 1582.24 58.328C1581.85 58.5627 1581.56 58.9093 1581.36 59.368C1581.15 59.816 1581.05 60.36 1581.05 61C1581.05 61.6293 1581.15 62.1733 1581.36 62.632C1581.56 63.0907 1581.85 63.4427 1582.24 63.688C1582.62 63.9227 1583.08 64.04 1583.61 64.04C1584.03 64.04 1584.39 63.976 1584.68 63.848C1584.99 63.72 1585.24 63.5333 1585.44 63.288C1585.64 63.0427 1585.78 62.744 1585.85 62.392L1587.04 62.808C1586.85 63.2987 1586.6 63.72 1586.28 64.072C1585.97 64.424 1585.6 64.696 1585.15 64.888C1584.71 65.0693 1584.21 65.16 1583.64 65.16C1582.9 65.16 1582.23 64.9947 1581.64 64.664C1581.06 64.3333 1580.6 63.8587 1580.27 63.24C1579.94 62.6107 1579.77 61.864 1579.77 61C1579.77 60.136 1579.94 59.3947 1580.27 58.776C1580.6 58.1467 1581.06 57.6667 1581.64 57.336C1582.23 57.0053 1582.9 56.84 1583.64 56.84ZM1591.17 54.728V62.792C1591.17 63.1867 1591.28 63.48 1591.51 63.672C1591.73 63.864 1592.02 63.96 1592.37 63.96C1592.68 63.96 1592.95 63.9067 1593.17 63.8C1593.4 63.6933 1593.6 63.5493 1593.78 63.368L1594.23 64.44C1593.98 64.664 1593.69 64.84 1593.35 64.968C1593.02 65.096 1592.63 65.16 1592.2 65.16C1591.79 65.16 1591.41 65.0907 1591.06 64.952C1590.71 64.8027 1590.43 64.5733 1590.21 64.264C1590.01 63.944 1589.9 63.528 1589.89 63.016V55.08L1591.17 54.728ZM1594.08 57V58.104H1588.29V57H1594.08ZM1599.3 56.84C1600.06 56.84 1600.72 57.0053 1601.3 57.336C1601.89 57.6667 1602.35 58.1467 1602.68 58.776C1603.01 59.3947 1603.17 60.136 1603.17 61C1603.17 61.864 1603.01 62.6107 1602.68 63.24C1602.35 63.8587 1601.89 64.3333 1601.3 64.664C1600.72 64.9947 1600.06 65.16 1599.3 65.16C1598.55 65.16 1597.89 64.9947 1597.3 64.664C1596.71 64.3333 1596.25 63.8587 1595.92 63.24C1595.59 62.6107 1595.43 61.864 1595.43 61C1595.43 60.136 1595.59 59.3947 1595.92 58.776C1596.25 58.1467 1596.71 57.6667 1597.3 57.336C1597.89 57.0053 1598.55 56.84 1599.3 56.84ZM1599.3 57.944C1598.76 57.944 1598.29 58.0667 1597.91 58.312C1597.52 58.5573 1597.23 58.9093 1597.01 59.368C1596.81 59.816 1596.71 60.36 1596.71 61C1596.71 61.6293 1596.81 62.1733 1597.01 62.632C1597.23 63.0907 1597.52 63.4427 1597.91 63.688C1598.29 63.9333 1598.76 64.056 1599.3 64.056C1599.84 64.056 1600.31 63.9333 1600.69 63.688C1601.08 63.4427 1601.37 63.0907 1601.57 62.632C1601.79 62.1733 1601.89 61.6293 1601.89 61C1601.89 60.36 1601.79 59.816 1601.57 59.368C1601.37 58.9093 1601.08 58.5573 1600.69 58.312C1600.31 58.0667 1599.84 57.944 1599.3 57.944ZM1605.91 63.08C1606.22 63.08 1606.47 63.176 1606.66 63.368C1606.85 63.56 1606.95 63.8107 1606.95 64.12C1606.95 64.4293 1606.85 64.68 1606.66 64.872C1606.47 65.064 1606.22 65.16 1605.91 65.16C1605.6 65.16 1605.35 65.064 1605.16 64.872C1604.97 64.68 1604.87 64.4293 1604.87 64.12C1604.87 63.8107 1604.97 63.56 1605.16 63.368C1605.35 63.176 1605.6 63.08 1605.91 63.08Z" fill="white"/>
</svg>
